<mxfile host="app.diagrams.net" modified="2024-11-05T01:49:21.906Z" agent="Mozilla/5.0 (Windows NT 10.0; Win64; x64) AppleWebKit/537.36 (KHTML, like Gecko) Chrome/130.0.0.0 Safari/537.36" version="24.6.5" etag="P_Cokes9mXAigG100Sj1" type="github">
  <diagram name="Page-1" id="rWjeJb-9X7UXIQCQdXav">
    <mxGraphModel>
      <root>
        <mxCell id="0" />
        <mxCell id="1" parent="0" />
      </root>
    </mxGraphModel>
  </diagram>
</mxfile>
